<?xml version="1.0" encoding="UTF-8"?>
<svg xmlns="http://www.w3.org/2000/svg" version="1.1" viewBox="0 0 12 12.4">
  <defs>
    <style>
      .cls-1, .cls-2 {
        isolation: isolate;
      }

      .cls-1, .cls-3 {
        opacity: .5;
      }

      .cls-2 {
        opacity: .7;
      }

      .cls-4 {
        fill: #89664c;
      }

      .cls-5 {
        fill: #ff8736;
      }

      .cls-6 {
        fill: #b2c1c0;
      }

      .cls-7 {
        fill: #fff;
      }

      .cls-8 {
        fill: #594640;
      }

      .cls-9 {
        fill: #ffce31;
      }

      .cls-10 {
        fill: #e8e8e8;
      }
    </style>
  </defs>
  <!-- Generator: Adobe Illustrator 28.6.0, SVG Export Plug-In . SVG Version: 1.2.0 Build 709)  -->
  <g>
    <g id="Layer_1">
      <g>
        <path class="cls-10" d="M10.7,11.3c0,.4-.4.7-.8.7H2.1c-.4,0-.7-.3-.8-.7L.4,1.4c0-.4.3-.7.6-.7h10c.4,0,.7.3.6.7l-.9,9.9Z"/>
        <path class="cls-6" d="M10.1,9c-1.2,0-2.3.7-2.3.7,0,0,2.1-.3,1.9-.2-1.6,1.2-6.4,1.2-7.3,0-.5-.6,3.2.8,4-.6H1.9c-.2,0-.3.2-.3.3l.3,1.8c0,.2.2.3.4.3h7.6c.2,0,.4-.2.4-.3l.3-1.8c0-.2,0-.3-.3-.3Z"/>
        <path class="cls-4" d="M10.7,6.2c0-.2-.1-.4-.3-.4H1.6c-.2,0-.3.2-.3.4l.2,2.1c0,.2.2.4.4.4h8.2c.2,0,.4-.2.4-.4l.2-2.1Z"/>
        <path class="cls-10" d="M3.5,10.7c-.7-.1-1.4-.8-1.3-.2,0,.9.3.6,2.4.6s-.8-.3-1-.4Z"/>
        <path class="cls-10" d="M8.7,10.7c.7-.1,1.4-.8,1.3-.2,0,.9-.3.6-2.4.6s.8-.3,1-.4Z"/>
        <g class="cls-2">
          <path class="cls-8" d="M10,8.1c0,0,0-.2-4-.2s-4,0-4,.2,0,.2,4,.2,4,0,4-.2Z"/>
        </g>
        <g class="cls-2">
          <path class="cls-5" d="M9.7,7.9c.2,0,.4,0,.4-.3v-1.1c.1-.2,0-.4-.2-.4H1.9c-.2,0-.2,0,0,0,0,0,1.1,0,2.1.3.7.2,1,.4,1.9.6.8.2,1.2,0,2,.2,1,.2,1.8.6,1.8.6Z"/>
        </g>
        <g class="cls-1">
          <path class="cls-7" d="M8.5,7.9c0,.2.1.4.3.4h1c.2,0,.4-.2.4-.3.2-1.5.5-4.8.7-6.3,0-.2-.1-.3-.3-.3h-1.7c-.2,0-.3.2-.3.4,0,1.5,0,4.8-.1,6.3Z"/>
        </g>
        <g class="cls-1">
          <path class="cls-6" d="M6,5.6c0-.2,0-.5-.1-.7l-.7-1.2c-.1-.2-.4-.3-.6-.2l-1.4.4c-.2,0-.4.3-.5.5l-.5,1.1c0,.1,0,.3,0,.5h3.8v-.3Z"/>
        </g>
        <g class="cls-1">
          <path class="cls-5" d="M3.1,7.3c.1.2.4.3.6.2l1.6-.4c.2,0,.4-.3.5-.5l.2-.9h-3.8c0,0,0,.1,0,.2l.9,1.3Z"/>
        </g>
        <g class="cls-2">
          <path class="cls-4" d="M2.6,6.3c.3.4.6,1.1.9,1,.3,0,1.2-.3,1.4-.4.2,0,.2-.3-.7,0-.9.2-1.1-.2-1.4-.7-.3-.5-.4-.3-.2,0Z"/>
        </g>
        <g class="cls-1">
          <path class="cls-6" d="M9.6,5.6l-.9-.9c-.1-.1-.4-.2-.6-.2h-1.1c-.2.1-.4.3-.5.5l-.5.9h3.7c0-.1,0-.2-.1-.3Z"/>
        </g>
        <g class="cls-1">
          <path class="cls-5" d="M6,6.7l1,1c.1.1.4.2.6.1l1-.3c.2,0,.4-.2.5-.4l.6-1.1c0,0,0-.2,0-.3h-3.7l-.2.3c0,.2,0,.4,0,.6Z"/>
        </g>
        <g class="cls-2">
          <path class="cls-4" d="M6.5,5.3c-.2.4-.6,1-.4,1.2.2.2.8.8.9.9.1.1.4,0-.2-.6-.6-.6-.4-.9-.1-1.4.2-.5,0-.5-.1-.1Z"/>
        </g>
        <g class="cls-1">
          <path class="cls-9" d="M8.1,6.3c0,.4-1,1.4-.7,1.4.2,0,.6-.9,1-1.3.2-.2.6-.2.9-.4.4-.2,0-.3-.4,0-.3.1-.6,0-.7-.2h-.3c.1.2.2.3.3.5Z"/>
        </g>
        <path class="cls-7" d="M7.9,5.6s-.7-.9-.9-.8c-.2.2.4.6.8,1h.3c-.2-.1-.2-.2-.2-.2Z"/>
        <g class="cls-1">
          <path class="cls-9" d="M5.4,6.8c0-.1-.1-.5-.4-1h-.2c.2.5.4,1.1.6,1Z"/>
        </g>
        <path class="cls-7" d="M5,4c0-.5-.2-.2-.3.4,0,.6-1,.7-1,.7,0,0-1.3.2-1.2.4,0,.3,1.5-.5,2-.2.1,0,.2.3.3.5h.2c-.1-.3-.2-.5-.3-.7,0-.3.1-.8.2-1.1Z"/>
        <g class="cls-3">
          <path class="cls-7" d="M2.1,8.3c.2,0,.1-1.6,0-3.5-.2-2-.4-3.5-.6-3.6-.3,0-.1,1.6,0,3.5.2,2,.4,3.5.6,3.6Z"/>
        </g>
      </g>
    </g>
  </g>
</svg>