<svg xmlns="http://www.w3.org/2000/svg" xmlns:xlink="http://www.w3.org/1999/xlink" viewBox="0 0 24 30" version="1.1" x="0px" y="0px"><title>drink_028-liquor-alcohol-glass-bottle</title><desc>Created with Sketch.</desc><g stroke="none" stroke-width="1" fill="none" fill-rule="evenodd"><g transform="translate(-380.000000, -140.000000)" fill="#000000"><g transform="translate(382.000000, 140.000000)"><path d="M7,0.5 C7,0.223857625 6.77614237,-2.19516516e-10 6.5,9.09494702e-13 L3.5,2.39560904e-09 C3.22385762,2.61603506e-09 3,0.223857628 3,0.500000002 L3,6.5 C3,7.18540146 2.81545606,7.52093776 2.21250431,8.15562585 C2.17089051,8.1993847 2.17089051,8.1993847 2.12843955,8.24403501 C1.40737328,9.00333024 1.0948571,9.52654755 1.00248171,10.4502451 L0.0782812515,22.4605932 C0.0135473385,23.3019554 0.654671173,23.9972399 1.49754465,23.9972399 L8.50245535,23.9972399 C9.34498814,23.9972399 9.98642125,23.3015471 9.92171875,22.4605932 L8.99852662,10.4616437 C8.9051429,9.52654755 8.59262672,9.00333024 7.87156045,8.24403501 C7.82910949,8.1993847 7.82910949,8.1993847 7.78749569,8.15562585 C7.18454394,7.52093776 7,7.18540146 7,6.5 L7,0.5 Z M7.06249515,8.84437415 C7.10479716,8.88885693 7.10479716,8.88885693 7.14643504,8.93265184 C7.72874417,9.5458334 7.93694227,9.89440048 8.00248171,10.5497549 L8.92466551,22.5373059 C8.94475785,22.7984509 8.76147317,22.9972399 8.50245535,22.9972399 L1.49754465,22.9972399 C1.23816199,22.9972399 1.05521257,22.7988353 1.07533449,22.5373059 L1.99852662,10.5383563 C2.06305773,9.89440048 2.27125583,9.5458334 2.85356496,8.93265184 C2.89520284,8.88885693 2.89520284,8.88885693 2.93750485,8.84437415 C3.70017008,8.04156606 4,7.49641773 4,6.5 L4,1 L6,1 L6,6.5 C6,7.49641773 6.29982992,8.04156606 7.06249515,8.84437415 Z"/><polygon points="3.5 2 3.5 3 6.5 3 6.5 2"/><path d="M3.5,11 C3.22385763,11 3,11.2238576 3,11.5 L3,20.5 C3,20.7761424 3.22385763,21 3.5,21 L6.5,21 C6.77614237,21 7,20.7761424 7,20.5 L7,11.5 C7,11.2238576 6.77614237,11 6.5,11 L3.5,11 Z M6,12 L6,20 L4,20 L4,12 L6,12 Z"/><path d="M17.5,11.0001248 C17.7761424,11.0001248 18,10.7762672 18,10.5001248 C18,10.2239824 17.7761424,10.0001248 17.5,10.0001248 L11.5,10.0001248 C11.2238576,10.0001248 11,10.2239824 11,10.5001248 C11,10.7762672 11.2238576,11.0001248 11.5,11.0001248 L17.5,11.0001248 Z"/><path d="M17.190967,11.0620932 C17.304372,11.3503309 17.4179233,11.6654357 17.5237879,11.9962627 C17.7011288,12.550453 17.8381813,13.0906682 17.9192522,13.5922945 C17.972328,13.9207005 18,14.225093 18,14.5001248 C18,15.5578749 17.3511522,16.4400375 16.2303487,17.1578188 C15.8216319,17.4195678 15.3804321,17.6386603 14.9390268,17.8155289 C14.67554,17.9211067 14.4735123,17.9882207 14.3648131,18.0187471 C14.0989555,18.0934087 13.9439606,18.3694541 14.0186223,18.6353117 C14.093284,18.9011693 14.3693293,19.0561642 14.6351869,18.9815025 C14.7764877,18.9418205 15.01196,18.8635961 15.3109732,18.7437832 C15.8070679,18.5450008 16.3033681,18.2985464 16.7696513,17.9999308 C18.1488478,17.1166704 19,15.9594581 19,14.5001248 C19,14.1677186 18.9675669,13.810954 18.9064427,13.4327485 C18.8165895,12.8767818 18.6676728,12.2898017 18.4762121,11.6914869 C18.3633267,11.3387202 18.242503,11.0034343 18.121533,10.6959689 C18.0484414,10.5101945 17.9909714,10.3737032 17.9569058,10.2970556 C17.8447537,10.0447135 17.5492729,9.93106697 17.2969308,10.043219 C17.0445887,10.1553711 16.9309422,10.4508519 17.0430942,10.703194 C17.0715286,10.7671714 17.1234336,10.8904457 17.190967,11.0620932 Z"/><path d="M14.0606954,17.8158864 C13.6193409,17.6393446 13.1781922,17.4205349 12.7695269,17.158989 C11.6487995,16.4417235 11,15.5593562 11,14.5001248 C11,14.225093 11.027672,13.9207005 11.0807478,13.5922945 C11.1618187,13.0906682 11.2988712,12.550453 11.4762121,11.9962627 C11.5820767,11.6654357 11.695628,11.3503309 11.809033,11.0620932 C11.8765664,10.8904457 11.9284714,10.7671714 11.9569058,10.703194 C12.0690578,10.4508519 11.9554113,10.1553711 11.7030692,10.043219 C11.4507271,9.93106697 11.1552463,10.0447135 11.0430942,10.2970556 C11.0090286,10.3737032 10.9515586,10.5101945 10.878467,10.6959689 C10.757497,11.0034343 10.6366733,11.3387202 10.5237879,11.6914869 C10.3323272,12.2898017 10.1834105,12.8767818 10.0935573,13.4327485 C10.0324331,13.810954 10,14.1677186 10,14.5001248 C10,15.9608932 10.8512005,17.1185259 12.2304731,18.0012604 C12.6968078,18.2997146 13.1931591,18.5459049 13.6893046,18.7443631 C13.988351,18.8639816 14.2238543,18.9420342 14.365185,18.9816068 C14.6311002,19.0560631 14.9070257,18.9008549 14.981482,18.6349398 C15.0559383,18.3690246 14.9007302,18.093099 14.634815,18.0186428 C14.5261457,17.9882154 14.324149,17.9212679 14.0606954,17.8158864 Z"/><polygon points="14 23.5001248 15 23.5001248 15 18.5001248 14 18.5001248"/><path d="M12.5,23.0001248 C12.2238576,23.0001248 12,23.2239824 12,23.5001248 C12,23.7762672 12.2238576,24.0001248 12.5,24.0001248 L16.5,24.0001248 C16.7761424,24.0001248 17,23.7762672 17,23.5001248 C17,23.2239824 16.7761424,23.0001248 16.5,23.0001248 L12.5,23.0001248 Z"/></g></g></g><text x="0" y="39" fill="#000000" font-size="5px" font-weight="bold" font-family="'Helvetica Neue', Helvetica, Arial-Unicode, Arial, Sans-serif">Created by Pham Thi Dieu Linh</text><text x="0" y="44" fill="#000000" font-size="5px" font-weight="bold" font-family="'Helvetica Neue', Helvetica, Arial-Unicode, Arial, Sans-serif">from the Noun Project</text></svg>